<?xml version="1.0" encoding="UTF-8" standalone="no"?>
<!-- Created with Inkscape (http://www.inkscape.org/) -->
<svg
   xmlns:svg="http://www.w3.org/2000/svg"
   xmlns="http://www.w3.org/2000/svg"
   xmlns:xlink="http://www.w3.org/1999/xlink"
   version="1.0"
   width="210mm"
   height="297mm"
   id="svg2">
  <defs
     id="defs4">
    <linearGradient
       id="linearGradient4087">
      <stop
         id="stop4089"
         style="stop-color:#000000;stop-opacity:1"
         offset="0" />
      <stop
         id="stop4095"
         style="stop-color:#ff0000;stop-opacity:1"
         offset="0.56159502" />
      <stop
         id="stop4097"
         style="stop-color:#ffff00;stop-opacity:1"
         offset="1" />
    </linearGradient>
    <linearGradient
       id="linearGradient4079">
      <stop
         id="stop4081"
         style="stop-color:#ed0000;stop-opacity:1"
         offset="0" />
      <stop
         id="stop4083"
         style="stop-color:#ed0000;stop-opacity:0"
         offset="1" />
    </linearGradient>
    <marker
       refX="0"
       refY="0"
       orient="auto"
       id="Arrow2Lend"
       style="overflow:visible">
      <path
         d="M 8.7185878,4.0337352 L -2.2072895,0.016013256 L 8.7185884,-4.0017078 C 6.97309,-1.6296469 6.9831476,1.6157441 8.7185878,4.0337352 z"
         transform="matrix(-1.1,0,0,-1.1,-1.1,0)"
         id="path3317"
         style="font-size:12px;fill-rule:evenodd;stroke-width:0.625;stroke-linejoin:round" />
    </marker>
    <linearGradient
       x1="143.19995"
       y1="239.61502"
       x2="272.78247"
       y2="239.61502"
       id="linearGradient4085"
       xlink:href="#linearGradient4079"
       gradientUnits="userSpaceOnUse" />
    <linearGradient
       x1="129.55914"
       y1="239.61502"
       x2="250.70731"
       y2="241.63669"
       id="linearGradient4121"
       xlink:href="#linearGradient4087"
       gradientUnits="userSpaceOnUse" />
    <linearGradient
       x1="129.55914"
       y1="239.61502"
       x2="250.70731"
       y2="241.63669"
       id="linearGradient4123"
       xlink:href="#linearGradient4087"
       gradientUnits="userSpaceOnUse" />
    <linearGradient
       x1="129.55914"
       y1="239.61502"
       x2="250.70731"
       y2="241.63669"
       id="linearGradient4127"
       xlink:href="#linearGradient4087"
       gradientUnits="userSpaceOnUse" />
  </defs>
  <g
     id="layer1">
    <path
       d="M 501.03566,631.12857 C 505.83435,651.88434 509.51923,667.34222 504.25427,674.04447 C 499.67062,679.87943 498.27589,682.43818 498.00521,684.16158 L 520.98618,685.42427 L 521.23871,676.58544 L 529.31993,676.58544 L 523.25902,667.49406 L 531.34024,641.48263 C 541.04791,643.69 546.44612,655.11003 567.70572,636.17933 C 565.82652,642.56509 567.97056,644.60935 569.4735,648.30116 C 568.8525,646.35711 573.97451,660.31671 567.31698,681.79096 L 563.17586,689.28861 L 584.87832,688.70727 L 585.88847,681.88874 C 593.36129,682.04169 592.02869,678.70368 588.41386,676.3329 C 586.94224,671.31723 591.58524,652.09243 604.07122,637.18949 L 608.59404,627.614 C 627.90957,624.38973 616.26383,626.73872 630.33817,625.49996 C 632.93973,638.82718 628.57414,648.28376 625.39851,658.40144 C 619.93183,663.47869 617.83585,669.67951 616.36421,676.08845 L 634.13158,675.70458 L 635.92224,667.83041 L 640.18065,666.41665 L 640.73312,659.99671 C 644.69078,645.0558 654.44285,643.37186 657.61235,630.34156 L 669.30931,610.1476 L 674.88292,610.82451 L 683.9008,626.16823 L 683.3682,640.72502 C 683.3682,640.72502 681.758,641.06397 687.15627,641.73517 C 690.87366,642.19738 685.06978,653.91759 688.92404,653.35193 L 685.3885,670.77706 L 682.86312,677.84813 L 702.05602,678.85828 L 701.29841,672.03975 L 703.57125,671.78721 C 701.15155,662.61166 702.86027,653.4361 705.08648,644.26055 L 708.36947,636.17933 L 710.38977,608.65267 C 714.57932,593.06491 711.22497,600.61617 723.26923,556.88236 C 724.22561,512.63361 730.9052,515.51544 688.67149,499.05112 C 675.6718,494.55354 653.89783,494.31906 629.57757,492.48514 C 621.33485,490.64557 560.25629,454.11433 563.16004,445.76558 C 557.00269,434.2093 543.90891,425.73406 533.86562,420.00669 C 505.39538,407.54634 459.09046,424.37911 465.93286,428.84552 C 462.74181,426.19323 441.91057,428.51184 441.43666,431.11837 C 429.16313,430.00862 433.38867,427.77648 428.30468,426.0676 C 427.60569,433.2448 428.18716,439.81235 437.39605,445.00797 C 446.5716,445.41141 455.74716,447.46994 464.92271,450.5638 C 452.71904,450.94169 438.00112,455.75899 439.92144,458.39249 C 440.75012,460.90426 438.342,465.94308 450.2755,469.50416 C 459.26224,469.29411 461.79015,464.77817 467.19555,462.18056 C 469.66336,467.39553 472.13717,472.23838 474.94297,476.96553 C 478.73651,483.3568 481.91418,488.31536 482.85291,498.29352 C 481.61543,509.37256 481.54841,500.28384 481.08515,503.59682 C 482.25361,517.66618 485.29354,510.84137 487.65114,522.53718 C 489.85224,536.57537 486.33395,546.80062 484.87322,558.39759 C 489.447,577.01202 486.47052,596.20724 499.01536,614.20852 L 501.03566,631.12857 z"
       id="path2453"
       style="fill:none;fill-rule:evenodd;stroke:#000000;stroke-width:2;stroke-linecap:butt;stroke-linejoin:miter;stroke-miterlimit:4;stroke-dasharray:none;stroke-opacity:1" />
    <path
       d="M 527.70141,440.77027 C 527.07991,440.44722 533.23778,440.18854 532.67381,439.86931 C 521.65217,433.63073 519.38816,426.07719 520.96092,421.97648 C 526.71198,425.0127 525.89347,426.10296 542.79024,427.05123 C 549.20998,431.03991 550.67214,440.56865 540.98174,443.37351 L 532.87818,444.23779"
       id="path3229"
       style="fill:none;fill-rule:evenodd;stroke:#000000;stroke-width:2;stroke-linecap:round;stroke-linejoin:round;stroke-miterlimit:4;stroke-dasharray:none;stroke-opacity:1" />
    <path
       d="M 528.8125,457.17468 C 550.75409,477.63342 559.83069,445.83249 531.9375,446.17468"
       id="path3231"
       style="fill:none;fill-rule:evenodd;stroke:#000000;stroke-width:2;stroke-linecap:butt;stroke-linejoin:miter;stroke-miterlimit:4;stroke-dasharray:none;stroke-opacity:1" />
    <path
       d="M 490.025,521.85532 C 499.81159,524.94781 503.99086,526.31065 514.95052,519.20367 C 520.47759,496.99671 519.64118,512.22552 528.20877,487.56064 C 533.61743,484.01262 536.17553,477.61403 535.45661,467.93843"
       id="path3233"
       style="fill:none;fill-rule:evenodd;stroke:#000000;stroke-width:2;stroke-linecap:butt;stroke-linejoin:miter;stroke-miterlimit:4;stroke-dasharray:none;stroke-opacity:1" />
    <path
       d="M 594,480.36218 C 621.18545,506.39516 619.47962,531.72347 620.25,557.11218 C 619.10709,573.24223 616.06066,589.89146 613.5,595.61218 C 611.38351,604.48682 615.42068,622.04419 608.5,625.86218"
       id="path3237"
       style="fill:none;fill-rule:evenodd;stroke:#000000;stroke-width:2;stroke-linecap:butt;stroke-linejoin:miter;stroke-miterlimit:4;stroke-dasharray:none;stroke-opacity:1" />
    <path
       d="M 18.738327,592.38922 C 4.4580073,524.14219 28.971547,490.95321 110.30866,464.04934 C 152.02796,465.22785 189.62883,473.61361 235.46656,467.58487 C 265.23598,446.42262 270.51188,460.19057 280.01429,465.46355 C 305.82368,487.38386 329.25048,509.30417 357.44248,531.22448 C 362.77442,531.96442 370.06888,530.62558 373.00329,531.54836 C 376.61322,532.68356 366.20932,538.78382 370.75776,542.16922 C 371.98199,543.08042 366.72444,544.78732 367.77086,546.27072 C 372.44318,552.89442 380.96551,566.71752 377.94858,579.66122 C 381.03801,588.02232 388.4644,598.03922 395.27269,605.47062 L 383.60543,617.84502 C 374.00807,619.91812 365.87566,618.32892 358.14958,615.72372 L 354.96761,621.38052 C 338.91805,617.69732 322.58218,617.27382 304.76303,606.88492 C 271.16577,601.64582 252.49939,613.46652 263.75083,643.65442 C 267.62525,653.31822 263.28319,665.81042 274.00388,675.47422 L 296.98486,689.61642 L 299.81328,695.27322 C 290.50565,701.88672 276.00046,704.39512 240.41631,698.80882 C 220.79266,674.95402 200.82777,653.48792 182.08,623.50192 C 171.71514,627.41522 160.73755,628.87752 148.49243,625.26972 C 144.35839,640.39162 140.18349,655.67702 137.88583,663.45342 C 139.02898,669.92582 144.56786,674.63992 159.80614,675.47422 C 158.69734,679.28032 165.9997,687.29202 154.85639,686.08082 C 152.07778,690.07712 144.39638,686.49922 134.35029,688.90932 C 129.97308,696.45092 127.26355,692.31882 123.74369,693.85902 C 118.32254,696.68742 112.42998,696.68742 106.06602,693.85902 C 101.94123,696.57572 97.816437,694.26252 93.691647,693.50552 C 90.526837,697.20482 68.803467,692.59772 59.750527,692.09132 C 59.425557,688.11922 56.751657,678.48642 56.568547,672.64582 C 47.509687,644.87902 34.388577,618.27272 18.738327,592.38922 z"
       id="path3259"
       style="fill:#ffffff;fill-opacity:1;fill-rule:evenodd;stroke:#000000;stroke-width:2;stroke-linecap:butt;stroke-linejoin:miter;stroke-miterlimit:4;stroke-dasharray:none;stroke-opacity:1" />
    <path
       d="M 237.58788,493.74782 C 224.73711,513.37798 212.94364,492.96413 212.48559,526.27473 C 191.09073,552.57022 197.61793,562.11252 190.21173,580.01482"
       id="path3261"
       style="fill:none;fill-rule:evenodd;stroke:#000000;stroke-width:2;stroke-linecap:butt;stroke-linejoin:miter;stroke-miterlimit:4;stroke-dasharray:none;stroke-opacity:1" />
    <path
       d="M 366.28132,546.78082 L 359.5638,551.02352 L 355.67471,545.01302"
       id="path3263"
       style="fill:none;fill-rule:evenodd;stroke:#000000;stroke-width:1px;stroke-linecap:butt;stroke-linejoin:miter;stroke-opacity:1" />
    <path
       d="M 299.19456,691.91449 L 299.61217,683.40944 C 299.91872,677.16636 284.00274,675.60525 279.48396,671.93872 C 276.52801,668.85812 273.77923,665.59072 272.23611,662.03922 C 270.34886,652.50122 271.83245,650.03392 268.17025,641.35642 C 273.50876,625.89722 267.2018,606.27042 295.92419,606.17782"
       id="path3267"
       style="fill:none;fill-rule:evenodd;stroke:#000000;stroke-width:2;stroke-linecap:butt;stroke-linejoin:miter;stroke-miterlimit:4;stroke-dasharray:none;stroke-opacity:1" />
    <path
       d="M 133.99674,689.26282 C 131.89901,679.97732 122.56289,675.17632 119.01635,676.80442 C 104.70249,683.37542 104.643,660.26922 104.65181,660.27142 L 104.47503,631.98722"
       id="path3269"
       style="fill:none;fill-rule:evenodd;stroke:#000000;stroke-width:2;stroke-linecap:butt;stroke-linejoin:miter;stroke-miterlimit:4;stroke-dasharray:none;stroke-opacity:1" />
  </g>
</svg>
